<svg xmlns="http://www.w3.org/2000/svg" width="892" height="256" viewBox="-6 0 892 256" role="img" aria-label="Shubham Shrestha, DevOps Engineer" xmlns:c2pa="http://c2pa.org/manifest"><metadata><c2pa:manifest>AAAWgmp1bWIAAAAeanVtZGMycGEAEQAQgAAAqgA4m3EDYzJwYQAAABZcanVtYgAAAEdqdW1kYzJtYQARABCAAACqADibcQN1cm46YzJwYTo3YjE4OTJiMi1lYzhiLTQwOGQtYTYwYS1iMWU2NDhmZTBmMDQAAAADl2p1bWIAAAApanVtZGMyYXMAEQAQgAAAqgA4m3EDYzJwYS5hc3NlcnRpb25zAAAAALxqdW1iAAAARGp1bWRjYm9yABEAEIAAAKoAOJtxE2MycGEuaW5ncmVkaWVudC52MwAAAAAYYzJzaGyD4yr0mkz0QdR3rJME3acAAABwY2JvcqNpZGM6Zm9ybWF0bWltYWdlL3N2Zyt4bWxqaW5zdGFuY2VJRHgseG1wOmlpZDozMzZjYzViZC0zNDFhLTQ4MzAtOWYwYy0yZGY5ODZhOWVmNTdscmVsYXRpb25zaGlwaHBhcmVudE9mAAAB4mp1bWIAAABBanVtZGNib3IAEQAQgAAAqgA4m3ETYzJwYS5hY3Rpb25zLnYyAAAAABhjMnNo48Nl/SG+iKYucMQ6VPOBMQAAAZljYm9yomdhY3Rpb25zgqJmYWN0aW9ua2MycGEub3BlbmVkanBhcmFtZXRlcnOha2luZ3JlZGllbnRzgaJjdXJseC1zZWxmI2p1bWJmPWMycGEuYXNzZXJ0aW9ucy9jMnBhLmluZ3JlZGllbnQudjNkaGFzaFggF2q8O+cjmWjNk47guOz9NPEHkN/UtzZmr5GHGoe9Nw6kZmFjdGlvbngdY29tLmFudGhyb3BpYy5jbGF1ZGUucHJvdmlkZWRqcGFyYW1ldGVyc6F4H2NvbS5hbnRocm9waWMub3JpZ2luLWNvbmZpZGVuY2VndW5rbm93bmtkZXNjcmlwdGlvbnhmQ2xhdWRlIHByb3ZpZGVkIHRoaXMgZmlsZSBhdCB0aGUgcmVxdWVzdCBvZiBhIHVzZXIgYW5kIG1heSBoYXZlIGNyZWF0ZWQgb3IgbW9kaWZpZWQgdGhlIGZpbGUgY29udGVudHMubXNvZnR3YXJlQWdlbnShZG5hbWVmQ2xhdWRlcmFsbEFjdGlvbnNJbmNsdWRlZPUAAADIanVtYgAAAEBqdW1kY2JvcgARABCAAACqADibcRNjMnBhLmhhc2guZGF0YQAAAAAYYzJzaC6Sx8FhaWUdXifSN3LmvKMAAACAY2JvcqVjYWxnZnNoYTI1NmNwYWRNAAAAAAAAAAAAAAAAAGRoYXNoWCB55zfA31eVCd6N61lpZrs5NmO6UAEOKmAe28DSOh0A/2RuYW1lbmp1bWJmIG1hbmlmZXN0amV4Y2x1c2lvbnOBomVzdGFydBjRZmxlbmd0aBkeBAAAAj5qdW1iAAAAJ2p1bWRjMmNsABEAEIAAAKoAOJtxA2MycGEuY2xhaW0udjIAAAACD2Nib3KlY2FsZ2ZzaGEyNTZpc2lnbmF0dXJleE1zZWxmI2p1bWJmPS9jMnBhL3VybjpjMnBhOjdiMTg5MmIyLWVjOGItNDA4ZC1hNjBhLWIxZTY0OGZlMGYwNC9jMnBhLnNpZ25hdHVyZWppbnN0YW5jZUlEeCx4bXA6aWlkOmMyMTVlMWRmLTlmNjYtNGI2My1hZDdjLWVhODI0ZGZiOTVkYnJjcmVhdGVkX2Fzc2VydGlvbnODomN1cmx4LXNlbGYjanVtYmY9YzJwYS5hc3NlcnRpb25zL2MycGEuaW5ncmVkaWVudC52M2RoYXNoWCAXarw75yOZaM2TjuC47P008QeQ39S3NmavkYcah703DqJjdXJseCpzZWxmI2p1bWJmPWMycGEuYXNzZXJ0aW9ucy9jMnBhLmFjdGlvbnMudjJkaGFzaFgg8oPCaVxhJQ4nq6CZW/AHen1vNgV7lXEA0DkVSbU48h6iY3VybHgpc2VsZiNqdW1iZj1jMnBhLmFzc2VydGlvbnMvYzJwYS5oYXNoLmRhdGFkaGFzaFgglTZ1yGBIMfmLAQtNNa8uG/G6XojmJTCwXFRMZw04Yq10Y2xhaW1fZ2VuZXJhdG9yX2luZm+jZG5hbWVvQW50aHJvcGljIEZpbGVzZ3ZlcnNpb25lMS4wLjBrc3BlY1ZlcnNpb25lMi40LjAAABA4anVtYgAAAChqdW1kYzJjcwARABCAAACqADibcQNjMnBhLnNpZ25hdHVyZQAAABAIY2JvctKEWQISogEmGCFZAgowggIGMIIBjaADAgECAhRA5aAK7sI50L64g/oGQgU9Z1UTADAKBggqhkjOPQQDAzBJMRcwFQYDVQQKEw5BbnRocm9waWMsIFBCQzEuMCwGA1UEAxMlQW50aHJvcGljIENvbnRlbnQgQ3JlZGVudGlhbHMgUm9vdCBDQTAeFw0yNjA4MDcxODQzNTZaFw0yODA4MDYxOTQzNTZaMEQxFzAVBgNVBAoTDkFudGhyb3BpYywgUEJDMSkwJwYDVQQDEyBBbnRocm9waWMgQ2xhdWRlIENvbnRlbnQgU2lnbmluZzBZMBMGByqGSM49AgEGCCqGSM49AwEHA0IABJh6CmvLUBgFFNU0vUKlOVtE6djd17L5SuwX0LemFisBM3dkd/3cyjxFA3Qo5S46fX0/ihY0VZ7mfb9KF703t5OjWDBWMA4GA1UdDwEB/wQEAwIHgDAVBgNVHSUEDjAMBgorBgEEAYPoXgIBMAwGA1UdEwEB/wQCMAAwHwYDVR0jBBgwFoAUzlHiBIFOZFsj+OPEz5o+nMHXXMIwCgYIKoZIzj0EAwMDZwAwZAIwMXMdFJ4BetLLVY7ORuE9noqbbAZOZn/aArXyTwFAZfKrPzxF2vPoJNf1+UCdg1XGAjBwX1zd9WGqYkqmL5SFqw1QySjr1zJfpJM9+1rdDwSPLMOPOjKuiXjoU/pUUeG9RwmhY3BhZFkNngAAAAAAAAAAAAAAAAAAAAAAAAAAAAAAAAAAAAAAAAAAAAAAAAAAAAAAAAAAAAAAAAAAAAAAAAAAAAAAAAAAAAAAAAAAAAAAAAAAAAAAAAAAAAAAAAAAAAAAAAAAAAAAAAAAAAAAAAAAAAAAAAAAAAAAAAAAAAAAAAAAAAAAAAAAAAAAAAAAAAAAAAAAAAAAAAAAAAAAAAAAAAAAAAAAAAAAAAAAAAAAAAAAAAAAAAAAAAAAAAAAAAAAAAAAAAAAAAAAAAAAAAAAAAAAAAAAAAAAAAAAAAAAAAAAAAAAAAAAAAAAAAAAAAAAAAAAAAAAAAAAAAAAAAAAAAAAAAAAAAAAAAAAAAAAAAAAAAAAAAAAAAAAAAAAAAAAAAAAAAAAAAAAAAAAAAAAAAAAAAAAAAAAAAAAAAAAAAAAAAAAAAAAAAAAAAAAAAAAAAAAAAAAAAAAAAAAAAAAAAAAAAAAAAAAAAAAAAAAAAAAAAAAAAAAAAAAAAAAAAAAAAAAAAAAAAAAAAAAAAAAAAAAAAAAAAAAAAAAAAAAAAAAAAAAAAAAAAAAAAAAAAAAAAAAAAAAAAAAAAAAAAAAAAAAAAAAAAAAAAAAAAAAAAAAAAAAAAAAAAAAAAAAAAAAAAAAAAAAAAAAAAAAAAAAAAAAAAAAAAAAAAAAAAAAAAAAAAAAAAAAAAAAAAAAAAAAAAAAAAAAAAAAAAAAAAAAAAAAAAAAAAAAAAAAAAAAAAAAAAAAAAAAAAAAAAAAAAAAAAAAAAAAAAAAAAAAAAAAAAAAAAAAAAAAAAAAAAAAAAAAAAAAAAAAAAAAAAAAAAAAAAAAAAAAAAAAAAAAAAAAAAAAAAAAAAAAAAAAAAAAAAAAAAAAAAAAAAAAAAAAAAAAAAAAAAAAAAAAAAAAAAAAAAAAAAAAAAAAAAAAAAAAAAAAAAAAAAAAAAAAAAAAAAAAAAAAAAAAAAAAAAAAAAAAAAAAAAAAAAAAAAAAAAAAAAAAAAAAAAAAAAAAAAAAAAAAAAAAAAAAAAAAAAAAAAAAAAAAAAAAAAAAAAAAAAAAAAAAAAAAAAAAAAAAAAAAAAAAAAAAAAAAAAAAAAAAAAAAAAAAAAAAAAAAAAAAAAAAAAAAAAAAAAAAAAAAAAAAAAAAAAAAAAAAAAAAAAAAAAAAAAAAAAAAAAAAAAAAAAAAAAAAAAAAAAAAAAAAAAAAAAAAAAAAAAAAAAAAAAAAAAAAAAAAAAAAAAAAAAAAAAAAAAAAAAAAAAAAAAAAAAAAAAAAAAAAAAAAAAAAAAAAAAAAAAAAAAAAAAAAAAAAAAAAAAAAAAAAAAAAAAAAAAAAAAAAAAAAAAAAAAAAAAAAAAAAAAAAAAAAAAAAAAAAAAAAAAAAAAAAAAAAAAAAAAAAAAAAAAAAAAAAAAAAAAAAAAAAAAAAAAAAAAAAAAAAAAAAAAAAAAAAAAAAAAAAAAAAAAAAAAAAAAAAAAAAAAAAAAAAAAAAAAAAAAAAAAAAAAAAAAAAAAAAAAAAAAAAAAAAAAAAAAAAAAAAAAAAAAAAAAAAAAAAAAAAAAAAAAAAAAAAAAAAAAAAAAAAAAAAAAAAAAAAAAAAAAAAAAAAAAAAAAAAAAAAAAAAAAAAAAAAAAAAAAAAAAAAAAAAAAAAAAAAAAAAAAAAAAAAAAAAAAAAAAAAAAAAAAAAAAAAAAAAAAAAAAAAAAAAAAAAAAAAAAAAAAAAAAAAAAAAAAAAAAAAAAAAAAAAAAAAAAAAAAAAAAAAAAAAAAAAAAAAAAAAAAAAAAAAAAAAAAAAAAAAAAAAAAAAAAAAAAAAAAAAAAAAAAAAAAAAAAAAAAAAAAAAAAAAAAAAAAAAAAAAAAAAAAAAAAAAAAAAAAAAAAAAAAAAAAAAAAAAAAAAAAAAAAAAAAAAAAAAAAAAAAAAAAAAAAAAAAAAAAAAAAAAAAAAAAAAAAAAAAAAAAAAAAAAAAAAAAAAAAAAAAAAAAAAAAAAAAAAAAAAAAAAAAAAAAAAAAAAAAAAAAAAAAAAAAAAAAAAAAAAAAAAAAAAAAAAAAAAAAAAAAAAAAAAAAAAAAAAAAAAAAAAAAAAAAAAAAAAAAAAAAAAAAAAAAAAAAAAAAAAAAAAAAAAAAAAAAAAAAAAAAAAAAAAAAAAAAAAAAAAAAAAAAAAAAAAAAAAAAAAAAAAAAAAAAAAAAAAAAAAAAAAAAAAAAAAAAAAAAAAAAAAAAAAAAAAAAAAAAAAAAAAAAAAAAAAAAAAAAAAAAAAAAAAAAAAAAAAAAAAAAAAAAAAAAAAAAAAAAAAAAAAAAAAAAAAAAAAAAAAAAAAAAAAAAAAAAAAAAAAAAAAAAAAAAAAAAAAAAAAAAAAAAAAAAAAAAAAAAAAAAAAAAAAAAAAAAAAAAAAAAAAAAAAAAAAAAAAAAAAAAAAAAAAAAAAAAAAAAAAAAAAAAAAAAAAAAAAAAAAAAAAAAAAAAAAAAAAAAAAAAAAAAAAAAAAAAAAAAAAAAAAAAAAAAAAAAAAAAAAAAAAAAAAAAAAAAAAAAAAAAAAAAAAAAAAAAAAAAAAAAAAAAAAAAAAAAAAAAAAAAAAAAAAAAAAAAAAAAAAAAAAAAAAAAAAAAAAAAAAAAAAAAAAAAAAAAAAAAAAAAAAAAAAAAAAAAAAAAAAAAAAAAAAAAAAAAAAAAAAAAAAAAAAAAAAAAAAAAAAAAAAAAAAAAAAAAAAAAAAAAAAAAAAAAAAAAAAAAAAAAAAAAAAAAAAAAAAAAAAAAAAAAAAAAAAAAAAAAAAAAAAAAAAAAAAAAAAAAAAAAAAAAAAAAAAAAAAAAAAAAAAAAAAAAAAAAAAAAAAAAAAAAAAAAAAAAAAAAAAAAAAAAAAAAAAAAAAAAAAAAAAAAAAAAAAAAAAAAAAAAAAAAAAAAAAAAAAAAAAAAAAAAAAAAAAAAAAAAAAAAAAAAAAAAAAAAAAAAAAAAAAAAAAAAAAAAAAAAAAAAAAAAAAAAAAAAAAAAAAAAAAAAAAAAAAAAAAAAAAAAAAAAAAAAAAAAAAAAAAAAAAAAAAAAAAAAAAAAAAAAAAAAAAAAAAAAAAAAAAAAAAAAAAAAAAAAAAAAAAAAAAAAAAAAAAAAAAAAAAAAAAAAAAAAAAAAAAAAAAAAAAAAAAAAAAAAAAAAAAAAAAAAAAAAAAAAAAAAAAAAAAAAAAAAAAAAAAAAAAAAAAAAAAAAAAAAAAAAAAAAAAAAAAAAAAAAAAAAAAAAAAAAAAAAAAAAAAAAAAAAAAAAAAAAAAAAAAAAAAAAAAAAAAAAAAAAAAAAAAAAAAAAAAAAAAAAAAAAAAAAAAAAAAAAAAAAAAAAAAAAAAAAAAAAAAAAAAAAAAAAAAAAAAAAAAAAAAAAAAAAAAAAAAAAAAAAAAAAAAAAAAAAAAAAAAAAAAAAAAAAAAAAAAAAAAAAAAAAAAAAAAAAAAAAAAAAAAAAAAAAAAAAAAAAAAAAAAAAAAAAAAAAAAAAAAAAAAAAAAAAAAAAAAAAAAAAAAAAAAAAAAAAAAAAAAAAAAAAAAAAAAAAAAAAAAAAAAAAAAAAAAAAAAAAAAAAAAAAAAAAAAAAAAAAAAAAAAAAAAAAAAAAAAAAAAAAAAAAAAAAAAAAAAAAAAAAAAAAAAAAAAAAAAAAAAAAAAAAAAAAAAAAAAAAAAAAAAAAAAAAAAAAAAAAAAAAAAAAAAAAAAAAAAAAAAAAAAAAAAAAAAAAAAAAAAAAAAAAAAAAAAAAAAAAAAAAAAAAAAAAAAAAAAAAAAAAAAAAAAAAAAAAAAAAAAAAAAAAAAAAAAAAAAAAAAAAAAAAAAAAAAAAAAAAAAAAAAAAAAAAAAAAAAAAAAAAAAAAAAAAAAAAAAAAAAAAAAAAAAAAAAAAAAAAAAAAAAAAAAAAAAAAAAAAAAAAAAAAAAAAAAAAAAAAAAAAAAAAAAAAAAAAAAAAAAAAAAAAAAAAAAAAAAAAAAAAAAAAAAAAAAAAAAAAAAAAAAAAAAAAAAAAAAAAAAAAAAAAAAAAAAAAAAAAAAAAAAAAAAAAAAAAAAAAAAAAAAAAAAAAAAAAAAAAAAAAAAAAAAAAAAAAAAAAAAAAAAAAAAAAAAAAAAAAAAAAAAAAAAAAAAAAAAAAAAAAAAAAAAAAAAAAAAAAAAAAAAAAAAAAAAAAAAAAAAAAAAAAAAAAAAAAAAAAAAAAAAAAAAAAAAAAAAAAAAAAAAAAAAAAAAAAAAAAAAAAAAAAAAAAAAAAAAAAAAAAAAAAAAAAAAAAAAAAAAAAAAAAAAAAAAAAAAAAAAAAAAAAAAAAAAAAAAAAAAAAAAAAAAAAAAAAAAAAAAAAAAAAAAAAAAAAAAAAAAAAAAAAAAAAAAAAAAAAAAAAAAAAAAAAAAAAAAAAAAAAAAAAAAAAAAAAAAAAAAAAAAAAAAAAAAAAAAAAAAAAAAAAAAAAAAAAAAAAAAAAAAAAAAAAAAAAAAAAAAAAAAAAAAAAAAAAAAAAAAAAAAAAAAAAAAAAAAAAAAAAAAAAAAAAAAAAAAAAAAAAAAAAAAAAAAAAAAAAAAAAAAAAAAAAAAAAAAAAAAAAAAAAAAAAAAAAAAAAAAAAAAAAAAAAAAAAAAAAAAAAAAAAAAAAAAAAAAAAAAAAAAAAAAAAAAAAAAAAAAAPZYQModALI5U6sHXKnUAC2Z+CaKVELq3gDXJ0II4DlwGy5vuhjAp/fAQgFunTrL4LamvVxWrLMNrqVElOQr0F1IaT4=</c2pa:manifest></metadata>
<defs><linearGradient id="g" x1="0" x2="1"><stop offset="0" stop-color="#3DDC97"/><stop offset=".3" stop-color="#30363D"/><stop offset="1" stop-color="#30363D" stop-opacity="0"/></linearGradient></defs>
<g fill="#8B949E"><circle cx="512" cy="24" r="1" opacity="0.06"/><circle cx="512" cy="40" r="1" opacity="0.06"/><circle cx="512" cy="56" r="1" opacity="0.05"/><circle cx="528" cy="24" r="1" opacity="0.08"/><circle cx="528" cy="40" r="1" opacity="0.08"/><circle cx="528" cy="56" r="1" opacity="0.07"/><circle cx="528" cy="72" r="1" opacity="0.06"/><circle cx="528" cy="88" r="1" opacity="0.05"/><circle cx="544" cy="24" r="1" opacity="0.10"/><circle cx="544" cy="40" r="1" opacity="0.10"/><circle cx="544" cy="56" r="1" opacity="0.09"/><circle cx="544" cy="72" r="1" opacity="0.08"/><circle cx="544" cy="88" r="1" opacity="0.07"/><circle cx="544" cy="104" r="1" opacity="0.05"/><circle cx="560" cy="24" r="1" opacity="0.12"/><circle cx="560" cy="40" r="1" opacity="0.12"/><circle cx="560" cy="56" r="1" opacity="0.11"/><circle cx="560" cy="72" r="1" opacity="0.10"/><circle cx="560" cy="88" r="1" opacity="0.09"/><circle cx="560" cy="104" r="1" opacity="0.07"/><circle cx="576" cy="24" r="1" opacity="0.14"/><circle cx="576" cy="40" r="1" opacity="0.14"/><circle cx="576" cy="56" r="1" opacity="0.13"/><circle cx="576" cy="72" r="1" opacity="0.12"/><circle cx="576" cy="88" r="1" opacity="0.10"/><circle cx="576" cy="104" r="1" opacity="0.09"/><circle cx="576" cy="120" r="1" opacity="0.07"/><circle cx="592" cy="24" r="1" opacity="0.16"/><circle cx="592" cy="40" r="1" opacity="0.15"/><circle cx="592" cy="56" r="1" opacity="0.15"/><circle cx="592" cy="72" r="1" opacity="0.14"/><circle cx="592" cy="88" r="1" opacity="0.12"/><circle cx="592" cy="104" r="1" opacity="0.10"/><circle cx="592" cy="120" r="1" opacity="0.08"/><circle cx="592" cy="136" r="1" opacity="0.06"/><circle cx="608" cy="24" r="1" opacity="0.18"/><circle cx="608" cy="40" r="1" opacity="0.17"/><circle cx="608" cy="56" r="1" opacity="0.17"/><circle cx="608" cy="72" r="1" opacity="0.15"/><circle cx="608" cy="88" r="1" opacity="0.14"/><circle cx="608" cy="104" r="1" opacity="0.12"/><circle cx="608" cy="120" r="1" opacity="0.10"/><circle cx="608" cy="136" r="1" opacity="0.07"/><circle cx="624" cy="24" r="1" opacity="0.20"/><circle cx="624" cy="40" r="1" opacity="0.19"/><circle cx="624" cy="56" r="1" opacity="0.18"/><circle cx="624" cy="72" r="1" opacity="0.17"/><circle cx="624" cy="88" r="1" opacity="0.16"/><circle cx="624" cy="104" r="1" opacity="0.14"/><circle cx="624" cy="120" r="1" opacity="0.11"/><circle cx="624" cy="136" r="1" opacity="0.09"/><circle cx="624" cy="152" r="1" opacity="0.06"/><circle cx="640" cy="24" r="1" opacity="0.21"/><circle cx="640" cy="40" r="1" opacity="0.21"/><circle cx="640" cy="56" r="1" opacity="0.20"/><circle cx="640" cy="72" r="1" opacity="0.19"/><circle cx="640" cy="88" r="1" opacity="0.17"/><circle cx="640" cy="104" r="1" opacity="0.15"/><circle cx="640" cy="120" r="1" opacity="0.13"/><circle cx="640" cy="136" r="1" opacity="0.10"/><circle cx="640" cy="152" r="1" opacity="0.07"/><circle cx="656" cy="24" r="1" opacity="0.23"/><circle cx="656" cy="40" r="1" opacity="0.23"/><circle cx="656" cy="56" r="1" opacity="0.22"/><circle cx="656" cy="72" r="1" opacity="0.21"/><circle cx="656" cy="88" r="1" opacity="0.19"/><circle cx="656" cy="104" r="1" opacity="0.17"/><circle cx="656" cy="120" r="1" opacity="0.14"/><circle cx="656" cy="136" r="1" opacity="0.11"/><circle cx="656" cy="152" r="1" opacity="0.08"/><circle cx="656" cy="168" r="1" opacity="0.05"/><circle cx="672" cy="24" r="1" opacity="0.25"/><circle cx="672" cy="40" r="1" opacity="0.25"/><circle cx="672" cy="56" r="1" opacity="0.24"/><circle cx="672" cy="72" r="1" opacity="0.22"/><circle cx="672" cy="88" r="1" opacity="0.21"/><circle cx="672" cy="104" r="1" opacity="0.18"/><circle cx="672" cy="120" r="1" opacity="0.16"/><circle cx="672" cy="136" r="1" opacity="0.13"/><circle cx="672" cy="152" r="1" opacity="0.10"/><circle cx="672" cy="168" r="1" opacity="0.06"/><circle cx="688" cy="24" r="1" opacity="0.27"/><circle cx="688" cy="40" r="1" opacity="0.27"/><circle cx="688" cy="56" r="1" opacity="0.26"/><circle cx="688" cy="72" r="1" opacity="0.24"/><circle cx="688" cy="88" r="1" opacity="0.22"/><circle cx="688" cy="104" r="1" opacity="0.20"/><circle cx="688" cy="120" r="1" opacity="0.17"/><circle cx="688" cy="136" r="1" opacity="0.14"/><circle cx="688" cy="152" r="1" opacity="0.11"/><circle cx="688" cy="168" r="1" opacity="0.07"/><circle cx="704" cy="24" r="1" opacity="0.29"/><circle cx="704" cy="40" r="1" opacity="0.29"/><circle cx="704" cy="56" r="1" opacity="0.28"/><circle cx="704" cy="72" r="1" opacity="0.26"/><circle cx="704" cy="88" r="1" opacity="0.24"/><circle cx="704" cy="104" r="1" opacity="0.21"/><circle cx="704" cy="120" r="1" opacity="0.18"/><circle cx="704" cy="136" r="1" opacity="0.15"/><circle cx="704" cy="152" r="1" opacity="0.12"/><circle cx="704" cy="168" r="1" opacity="0.08"/><circle cx="720" cy="24" r="1" opacity="0.31"/><circle cx="720" cy="40" r="1" opacity="0.31"/><circle cx="720" cy="56" r="1" opacity="0.29"/><circle cx="720" cy="72" r="1" opacity="0.27"/><circle cx="720" cy="88" r="1" opacity="0.25"/><circle cx="720" cy="104" r="1" opacity="0.22"/><circle cx="720" cy="120" r="1" opacity="0.19"/><circle cx="720" cy="136" r="1" opacity="0.16"/><circle cx="720" cy="152" r="1" opacity="0.13"/><circle cx="720" cy="168" r="1" opacity="0.09"/><circle cx="720" cy="184" r="1" opacity="0.06"/><circle cx="736" cy="24" r="1" opacity="0.33"/><circle cx="736" cy="40" r="1" opacity="0.32"/><circle cx="736" cy="56" r="1" opacity="0.31"/><circle cx="736" cy="72" r="1" opacity="0.29"/><circle cx="736" cy="88" r="1" opacity="0.27"/><circle cx="736" cy="104" r="1" opacity="0.24"/><circle cx="736" cy="120" r="1" opacity="0.21"/><circle cx="736" cy="136" r="1" opacity="0.17"/><circle cx="736" cy="152" r="1" opacity="0.14"/><circle cx="736" cy="168" r="1" opacity="0.10"/><circle cx="736" cy="184" r="1" opacity="0.06"/><circle cx="752" cy="24" r="1" opacity="0.35"/><circle cx="752" cy="40" r="1" opacity="0.34"/><circle cx="752" cy="56" r="1" opacity="0.33"/><circle cx="752" cy="72" r="1" opacity="0.31"/><circle cx="752" cy="88" r="1" opacity="0.28"/><circle cx="752" cy="104" r="1" opacity="0.25"/><circle cx="752" cy="120" r="1" opacity="0.22"/><circle cx="752" cy="136" r="1" opacity="0.18"/><circle cx="752" cy="152" r="1" opacity="0.15"/><circle cx="752" cy="168" r="1" opacity="0.11"/><circle cx="752" cy="184" r="1" opacity="0.07"/><circle cx="768" cy="24" r="1" opacity="0.37"/><circle cx="768" cy="40" r="1" opacity="0.36"/><circle cx="768" cy="56" r="1" opacity="0.34"/><circle cx="768" cy="72" r="1" opacity="0.32"/><circle cx="768" cy="88" r="1" opacity="0.29"/><circle cx="768" cy="104" r="1" opacity="0.26"/><circle cx="768" cy="120" r="1" opacity="0.23"/><circle cx="768" cy="136" r="1" opacity="0.19"/><circle cx="768" cy="152" r="1" opacity="0.15"/><circle cx="768" cy="168" r="1" opacity="0.12"/><circle cx="768" cy="184" r="1" opacity="0.08"/><circle cx="784" cy="24" r="1" opacity="0.39"/><circle cx="784" cy="40" r="1" opacity="0.38"/><circle cx="784" cy="56" r="1" opacity="0.36"/><circle cx="784" cy="72" r="1" opacity="0.33"/><circle cx="784" cy="88" r="1" opacity="0.30"/><circle cx="784" cy="104" r="1" opacity="0.27"/><circle cx="784" cy="120" r="1" opacity="0.23"/><circle cx="784" cy="136" r="1" opacity="0.20"/><circle cx="784" cy="152" r="1" opacity="0.16"/><circle cx="784" cy="168" r="1" opacity="0.12"/><circle cx="784" cy="184" r="1" opacity="0.08"/><circle cx="800" cy="24" r="1" opacity="0.40"/><circle cx="800" cy="40" r="1" opacity="0.40"/><circle cx="800" cy="56" r="1" opacity="0.38"/><circle cx="800" cy="72" r="1" opacity="0.35"/><circle cx="800" cy="88" r="1" opacity="0.31"/><circle cx="800" cy="104" r="1" opacity="0.28"/><circle cx="800" cy="120" r="1" opacity="0.24"/><circle cx="800" cy="136" r="1" opacity="0.20"/><circle cx="800" cy="152" r="1" opacity="0.17"/><circle cx="800" cy="168" r="1" opacity="0.13"/><circle cx="800" cy="184" r="1" opacity="0.09"/><circle cx="816" cy="24" r="1" opacity="0.42"/><circle cx="816" cy="40" r="1" opacity="0.41"/><circle cx="816" cy="56" r="1" opacity="0.39"/><circle cx="816" cy="72" r="1" opacity="0.36"/><circle cx="816" cy="88" r="1" opacity="0.32"/><circle cx="816" cy="104" r="1" opacity="0.29"/><circle cx="816" cy="120" r="1" opacity="0.25"/><circle cx="816" cy="136" r="1" opacity="0.21"/><circle cx="816" cy="152" r="1" opacity="0.17"/><circle cx="816" cy="168" r="1" opacity="0.13"/><circle cx="816" cy="184" r="1" opacity="0.09"/><circle cx="816" cy="200" r="1" opacity="0.05"/><circle cx="832" cy="24" r="1" opacity="0.44"/><circle cx="832" cy="40" r="1" opacity="0.43"/><circle cx="832" cy="56" r="1" opacity="0.40"/><circle cx="832" cy="72" r="1" opacity="0.37"/><circle cx="832" cy="88" r="1" opacity="0.33"/><circle cx="832" cy="104" r="1" opacity="0.29"/><circle cx="832" cy="120" r="1" opacity="0.25"/><circle cx="832" cy="136" r="1" opacity="0.21"/><circle cx="832" cy="152" r="1" opacity="0.17"/><circle cx="832" cy="168" r="1" opacity="0.14"/><circle cx="832" cy="184" r="1" opacity="0.10"/><circle cx="832" cy="200" r="1" opacity="0.06"/><circle cx="848" cy="24" r="1" opacity="0.46"/><circle cx="848" cy="40" r="1" opacity="0.44"/><circle cx="848" cy="56" r="1" opacity="0.41"/><circle cx="848" cy="72" r="1" opacity="0.37"/><circle cx="848" cy="88" r="1" opacity="0.34"/><circle cx="848" cy="104" r="1" opacity="0.30"/><circle cx="848" cy="120" r="1" opacity="0.26"/><circle cx="848" cy="136" r="1" opacity="0.22"/><circle cx="848" cy="152" r="1" opacity="0.18"/><circle cx="848" cy="168" r="1" opacity="0.14"/><circle cx="848" cy="184" r="1" opacity="0.10"/><circle cx="848" cy="200" r="1" opacity="0.06"/><circle cx="864" cy="24" r="1" opacity="0.48"/><circle cx="864" cy="40" r="1" opacity="0.46"/><circle cx="864" cy="56" r="1" opacity="0.42"/><circle cx="864" cy="72" r="1" opacity="0.38"/><circle cx="864" cy="88" r="1" opacity="0.34"/><circle cx="864" cy="104" r="1" opacity="0.30"/><circle cx="864" cy="120" r="1" opacity="0.26"/><circle cx="864" cy="136" r="1" opacity="0.22"/><circle cx="864" cy="152" r="1" opacity="0.18"/><circle cx="864" cy="168" r="1" opacity="0.14"/><circle cx="864" cy="184" r="1" opacity="0.10"/><circle cx="864" cy="200" r="1" opacity="0.06"/><circle cx="880" cy="24" r="1" opacity="0.50"/><circle cx="880" cy="40" r="1" opacity="0.46"/><circle cx="880" cy="56" r="1" opacity="0.42"/><circle cx="880" cy="72" r="1" opacity="0.38"/><circle cx="880" cy="88" r="1" opacity="0.34"/><circle cx="880" cy="104" r="1" opacity="0.30"/><circle cx="880" cy="120" r="1" opacity="0.26"/><circle cx="880" cy="136" r="1" opacity="0.22"/><circle cx="880" cy="152" r="1" opacity="0.18"/><circle cx="880" cy="168" r="1" opacity="0.14"/><circle cx="880" cy="184" r="1" opacity="0.10"/><circle cx="880" cy="200" r="1" opacity="0.06"/></g>
<text x="0" y="38" font-family="ui-monospace,SFMono-Regular,Menlo,Consolas,'Liberation Mono',monospace" font-size="12" letter-spacing="3.2" fill="#3DDC97">DEVOPS ENGINEER</text>
<text x="-2" y="118" font-family="-apple-system,BlinkMacSystemFont,'Segoe UI',Helvetica,Arial,sans-serif" font-size="62" font-weight="600" letter-spacing="-2" fill="#F0F6FC">Shubham Shrestha</text>
<text x="0" y="158" font-family="-apple-system,BlinkMacSystemFont,'Segoe UI',Helvetica,Arial,sans-serif" font-size="17.5" fill="#8B949E">I build and run the systems that carry software from commit to production.</text>
<rect x="0.5" y="186.5" width="101" height="26" rx="13" fill="none" stroke="#30363D"/>
<text x="50.5" y="203.5" text-anchor="middle" font-family="ui-monospace,SFMono-Regular,Menlo,Consolas,'Liberation Mono',monospace" font-size="12" fill="#F0F6FC">Kubernetes</text>
<rect x="111.5" y="186.5" width="72" height="26" rx="13" fill="none" stroke="#30363D"/>
<text x="146.9" y="203.5" text-anchor="middle" font-family="ui-monospace,SFMono-Regular,Menlo,Consolas,'Liberation Mono',monospace" font-size="12" fill="#F0F6FC">Docker</text>
<rect x="193.3" y="186.5" width="64" height="26" rx="13" fill="none" stroke="#30363D"/>
<text x="225.1" y="203.5" text-anchor="middle" font-family="ui-monospace,SFMono-Regular,Menlo,Consolas,'Liberation Mono',monospace" font-size="12" fill="#F0F6FC">CI/CD</text>
<rect x="267.8" y="186.5" width="64" height="26" rx="13" fill="none" stroke="#30363D"/>
<text x="299.6" y="203.5" text-anchor="middle" font-family="ui-monospace,SFMono-Regular,Menlo,Consolas,'Liberation Mono',monospace" font-size="12" fill="#F0F6FC">Linux</text>
<text x="880" y="203.5" text-anchor="end" font-family="ui-monospace,SFMono-Regular,Menlo,Consolas,'Liberation Mono',monospace" font-size="12.5" fill="#F0F6FC">shubham-shrestha.com.np</text>
<line x1="0" y1="246" x2="880" y2="246" stroke="url(#g)" stroke-width="1.5"/>
<g><circle cx="732" cy="34" r="3" fill="#3DDC97"><animate attributeName="opacity" values="1;.25;1" dur="3s" repeatCount="indefinite"/></circle><text x="880" y="38" text-anchor="end" font-family="ui-monospace,SFMono-Regular,Menlo,Consolas,'Liberation Mono',monospace" font-size="12" fill="#8B949E">open to collaboration</text></g>
</svg>